<?xml version="1.0" encoding="utf-8"?>
<!-- Generator: Adobe Illustrator 16.0.4, SVG Export Plug-In . SVG Version: 6.00 Build 0)  -->
<!DOCTYPE svg PUBLIC "-//W3C//DTD SVG 1.1//EN" "http://www.w3.org/Graphics/SVG/1.1/DTD/svg11.dtd">
<svg version="1.1" id="Layer_1" xmlns="http://www.w3.org/2000/svg" xmlns:xlink="http://www.w3.org/1999/xlink" x="0px" y="0px"
	 width="791px" height="129px" viewBox="0 0 791 129" enable-background="new 0 0 791 129" xml:space="preserve">
<g>
	<path d="M135.797,88.598h-11.593V38.193h19.441c13.969,0,18.218,9.793,18.218,16.633c0,10.081-8.857,16.849-17.354,16.849h-8.713
		L135.797,88.598L135.797,88.598z M150.343,54.827c0-2.088-1.152-5.977-6.336-5.977h-8.209v12.025h8.425
		C149.191,60.731,150.343,56.699,150.343,54.827z"/>
	<path d="M198.654,77.869h18.218v10.729h-29.811V38.193h11.593V77.869z"/>
	<path d="M286.568,88.598h-12.889l-4.393-10.513h-14.257l-4.393,10.513h-12.889l23.906-50.835h1.008L286.568,88.598z
		 M258.773,69.012h6.697l-3.312-8.063L258.773,69.012z"/>
	<path d="M312.341,48.922h-13.177V38.193h38.091v10.729h-13.321v39.676h-11.593V48.922z"/>
	<path d="M398.672,88.598h-12.889l-4.393-10.513h-14.257l-4.393,10.513h-12.889l23.906-50.835h1.008L398.672,88.598z
		 M370.877,69.012h6.697l-3.312-8.063L370.877,69.012z"/>
	<path d="M433.876,69.084v19.514h-11.448V38.193h34.778v10.729h-23.33v9.433h18.29v10.729H433.876z"/>
	<path d="M528.126,63.323c0,10.802-5.904,26.065-24.985,26.065c-19.153,0-25.059-15.265-25.059-26.065
		c0-10.513,5.904-25.994,25.059-25.994C522.222,37.329,528.126,52.811,528.126,63.323z M516.39,63.323
		c0-3.744-1.655-15.121-13.249-15.121c-11.665,0-13.32,11.377-13.32,15.121c0,3.745,1.655,15.266,13.32,15.266
		C514.733,78.589,516.39,67.068,516.39,63.323z"/>
	<path d="M565.49,88.598h-11.449V38.193h19.298c13.97,0,18.218,9.793,18.218,16.633c0,7.129-3.889,12.24-9.289,14.904l8.857,18.867
		h-12.602l-7.922-16.923h-5.111V88.598z M580.036,54.827c0-2.088-1.152-5.977-6.337-5.977h-8.209v12.025h8.497
		C578.884,60.731,580.036,56.699,580.036,54.827z"/>
	<path d="M646.276,89.029l-13.249-24.842l-8.354,24.411h-12.241l19.011-50.692h0.863l14.401,28.729l14.4-28.73h0.863l19.011,50.693
		h-12.241l-8.354-24.411l-13.249,24.842H646.276z"/>
	<path d="M748.518,88.598h-12.89l-4.392-10.513h-14.259l-4.393,10.513h-12.889l23.905-50.835h1.009L748.518,88.598z M720.723,69.012
		h6.697l-3.312-8.063L720.723,69.012z"/>
</g>
<path fill="#E87057" d="M86,54.831c-17,18.248-38-12.802-51,0V38.659c13-12.802,34,18.248,51,0V54.831z"/>
<path fill="#E87057" d="M86,87.82c-17,18.25-38-12.801-51,0V71.648c13-12.8,34,18.25,51,0V87.82z"/>
</svg>
