<?xml version="1.0" encoding="utf-8"?>
<!-- Generator: Adobe Illustrator 16.0.4, SVG Export Plug-In . SVG Version: 6.00 Build 0)  -->
<!DOCTYPE svg PUBLIC "-//W3C//DTD SVG 1.1//EN" "http://www.w3.org/Graphics/SVG/1.1/DTD/svg11.dtd">
<svg version="1.1" id="Layer_1" xmlns="http://www.w3.org/2000/svg" xmlns:xlink="http://www.w3.org/1999/xlink" x="0px" y="0px"
	 width="922.076px" height="221px" viewBox="0 0 922.076 221" enable-background="new 0 0 922.076 221" xml:space="preserve">
<g>
	<path d="M142.825,182.5h-6.121v-50.404h18.578c13.321,0,17.281,9.217,17.281,15.481c0,9.433-8.425,15.625-16.201,15.625h-13.537
		V182.5z M156.002,157.945c8.497-0.215,10.441-7.057,10.441-10.368c0-3.528-1.872-10.369-10.729-10.369h-12.889v20.737H156.002z"/>
	<path d="M218.281,177.314h19.802v5.186H212.16v-50.404h6.121V177.314z"/>
	<path d="M318.219,182.5h-6.84l-5.833-13.896h-19.802l-5.688,13.896h-6.697l21.818-50.908h0.937L318.219,182.5z M287.832,163.562
		h15.625l-7.849-18.938L287.832,163.562z"/>
	<path d="M360.265,137.28h-15.049v-5.186h36.435v5.186h-15.193v45.22h-6.192L360.265,137.28L360.265,137.28z"/>
	<path d="M453.507,182.5h-6.84l-5.833-13.896h-19.802l-5.688,13.896h-6.697l21.818-50.908h0.937L453.507,182.5z M423.121,163.562
		h15.625l-7.85-18.938L423.121,163.562z"/>
	<path d="M497.784,160.25v22.25h-6.121v-50.404h32.619v5.186h-26.498v17.785h20.737v5.185L497.784,160.25L497.784,160.25z"/>
	<path d="M609.388,157.227c0,10.801-5.688,25.922-24.914,25.922c-19.226,0-24.914-15.121-24.914-25.922
		c0-10.514,5.688-25.851,24.914-25.851C603.7,131.376,609.388,146.713,609.388,157.227z M603.052,157.227
		c0-5.112-2.305-20.233-18.578-20.233c-16.346,0-18.648,15.121-18.648,20.233s2.304,20.377,18.648,20.377
		C600.747,177.604,603.052,162.338,603.052,157.227z"/>
	<path d="M655.68,182.5h-5.977v-50.404h18.434c13.321,0,17.282,9.217,17.282,15.481c0,7.487-5.4,12.817-11.737,15.121
		c2.81,6.048,6.408,13.681,9.289,19.802h-6.265l-9.146-19.298H655.68V182.5z M668.857,157.945
		c8.495-0.215,10.439-7.057,10.439-10.368c0-3.528-1.872-10.369-10.729-10.369h-12.891v20.737H668.857z"/>
	<path d="M738.552,147.865L727.319,182.5h-6.625l16.922-50.908h0.792l16.562,37.947l16.562-37.947h0.792l16.921,50.908h-6.624
		l-11.233-34.707l-15.984,35.643h-0.792L738.552,147.865z"/>
	<path d="M867.218,182.5h-6.841l-5.833-13.896h-19.802l-5.688,13.896h-6.695l21.817-50.908h0.937L867.218,182.5z M836.831,163.562
		h15.625l-7.849-18.938L836.831,163.562z"/>
</g>
<polygon fill="#0195B4" points="33,123.312 87,94.626 87,136.251 33,164.938 "/>
<polygon fill="#FB9591" points="171,52.749 117,24.063 117,65.688 171,94.374 "/>
</svg>
